<?xml version="1.0" encoding="UTF-8" standalone="no"?>
<!-- Created with Inkscape (http://www.inkscape.org/) -->

<svg
   xmlns:dc="http://purl.org/dc/elements/1.1/"
   xmlns:cc="http://creativecommons.org/ns#"
   xmlns:rdf="http://www.w3.org/1999/02/22-rdf-syntax-ns#"
   xmlns:svg="http://www.w3.org/2000/svg"
   xmlns="http://www.w3.org/2000/svg"
   xmlns:sodipodi="http://sodipodi.sourceforge.net/DTD/sodipodi-0.dtd"
   xmlns:inkscape="http://www.inkscape.org/namespaces/inkscape"
   width="744.09448819"
   height="1052.3622047"
   id="svg2"
   version="1.1"
   inkscape:version="0.48.5 r10040"
   sodipodi:docname="New document 1">
  <defs
     id="defs4" />
  <sodipodi:namedview
     id="base"
     pagecolor="#ffffff"
     bordercolor="#666666"
     borderopacity="1.0"
     inkscape:pageopacity="0.0"
     inkscape:pageshadow="2"
     inkscape:zoom="0.98994949"
     inkscape:cx="379.26184"
     inkscape:cy="823.99808"
     inkscape:document-units="px"
     inkscape:current-layer="layer1"
     showgrid="false"
     inkscape:window-width="1920"
     inkscape:window-height="1138"
     inkscape:window-x="-8"
     inkscape:window-y="-8"
     inkscape:window-maximized="1" />
  <metadata
     id="metadata7">
    <rdf:RDF>
      <cc:Work
         rdf:about="">
        <dc:format>image/svg+xml</dc:format>
        <dc:type
           rdf:resource="http://purl.org/dc/dcmitype/StillImage" />
        <dc:title></dc:title>
      </cc:Work>
    </rdf:RDF>
  </metadata>
  <g
     inkscape:label="Layer 1"
     inkscape:groupmode="layer"
     id="layer1">
    <path
       inkscape:connector-curvature="0"
       id="path2998"
       d="m 105.52104,235.3441 c -6.297787,-3.1023 -6.797407,-5.79883 -7.574397,-40.88023 -0.75574,-34.12176 -0.53607,-35.89657 4.979957,-40.23548 2.05148,-1.61369 4.13135,-2.1679 8.13586,-2.1679 4.7238,0 5.83211,0.41448 9.08876,3.39898 l 3.70893,3.39898 0.70157,14.35102 c 0.38586,7.89306 0.73355,23.35102 0.77264,34.35102 0.0653,18.37169 -0.0932,20.2695 -1.94707,23.31018 -3.49333,5.72974 -11.33172,7.69235 -17.86625,4.47343 z m 213.16157,0.2338 c -1.77666,-0.77236 -4.17824,-2.89225 -5.33683,-4.71086 -2.06393,-3.23969 -2.09501,-3.97005 -1.53679,-36.11939 0.62252,-35.8527 0.91108,-37.66524 6.52438,-40.9811 4.21723,-2.49118 12.10941,-2.25701 15.56587,0.46184 5.5341,4.35312 5.75681,6.14892 4.99289,40.25951 -0.60529,27.02753 -0.93677,31.63026 -2.54626,35.35636 -2.8237,6.53712 -10.26136,8.95145 -17.66326,5.73364 z M 91.627283,226.81049 c -0.64311,-0.78008 -1.14939,-13.0178 -1.34669,-32.55239 -0.27008,-26.73912 -0.10125,-31.43526 1.15808,-32.21384 3.3754,-2.08682 3.80065,0.94009 4.53067,32.24929 0.56162,24.08698 0.44433,31.0611 -0.54236,32.25 -1.53042,1.84404 -2.44645,1.90839 -3.7997,0.26694 z M 341.38089,226.5219 c -1.00917,-1.21598 -1.12942,-7.97808 -0.57348,-32.25 0.71921,-31.40081 1.139,-34.35486 4.57976,-32.22764 1.25933,0.77858 1.42815,5.47472 1.15808,32.21384 -0.2973,29.4347 -0.70204,33.80239 -3.13233,33.80239 -0.41531,0 -1.32972,-0.69236 -2.03203,-1.53859 z M 85.687433,222.23015 c -0.65822,-0.4068 -2.19256,-2.97389 -3.40966,-5.70465 -2.12974,-4.77842 -2.20587,-6.01726 -2.02567,-32.96501 0.10298,-15.4 0.56922,-33.99385 1.03609,-41.31967 0.83561,-13.11181 0.92053,-13.46294 5.44184,-22.5 4.52778,-9.04999 16.711137,-26.370209 19.228907,-27.336359 1.61888,-0.62122 6.45398,2.46134 6.45398,4.11466 0,0.67573 -2.94189,5.686479 -6.53754,11.134989 -6.522127,9.88303 -6.970257,11.37311 -4.9725,16.53392 0.42073,1.08684 -1.875657,4.95387 -6.912387,11.64018 l -7.54242,10.01264 0.77725,37.35982 c 0.42748,20.5479 0.52561,37.90191 0.21805,38.56446 -0.30755,0.66256 -1.09773,0.87181 -1.75594,0.46502 z m 263.403077,0.0803 c -0.24224,-0.4125 -0.0367,-17.72521 0.45666,-38.47268 l 0.89711,-37.72269 -7.56821,-10.16924 c -4.44273,-5.96961 -7.33826,-10.76846 -7.01141,-11.62022 2.02607,-5.27987 1.74788,-6.21912 -4.95747,-16.73747 -3.69017,-5.78858 -6.49049,-11.095169 -6.22293,-11.792409 0.26755,-0.69724 1.71861,-1.92714 3.22457,-2.7331 2.6565,-1.42172 2.83914,-1.34672 6.12808,2.51621 6.09835,7.162629 13.35884,18.237859 17.04632,26.002639 3.37465,7.10607 3.67626,8.53894 4.48318,21.29878 0.47582,7.5241 0.95231,26.05518 1.05887,41.18018 l 0.19375,27.5 -2.64773,5.75 c -2.45533,5.33216 -3.99558,6.84792 -5.08079,5 z M 113.51992,87.176071 c -3.34962,-2.57546 -2.42714,-5.10726 5.11933,-14.05026 11.1463,-13.20902 29.42875,-26.30942 47.14208,-33.77995 32.18466,-13.57378 73.07035,-13.57722 105.24215,-0.009 17.72318,7.47469 35.76098,20.37517 46.93952,33.57072 7.76458,9.16559 8.70684,11.68191 5.34292,14.26836 -1.31615,1.01196 -2.99588,1.84993 -3.73274,1.86216 -0.73686,0.0122 -3.88686,-2.24871 -7,-5.02432 -17.00992,-15.16567 -40.6072,-27.32921 -63.53239,-32.74863 -10.17395,-2.40508 -12.88521,-2.62671 -31.62787,-2.58545 -19.64996,0.0433 -20.98659,0.17347 -32.23492,3.14038 -20.83239,5.49484 -42.76841,16.85687 -58.64195,30.37432 -4.43448,3.77627 -8.63878,6.85593 -9.3429,6.8437 -0.70413,-0.0122 -2.35708,-0.8502 -3.67323,-1.86216 z"
       style="fill:#ff0000"
       sodipodi:nodetypes="ssssscsssssssssssssssssssssssssssssssssscscssscssscssssscsscssssscsssssccc" />
    <path
       style="fill:#000000"
       d="m 173.29185,205.39531 c -16.78884,-0.90979 -28.37396,-4.64044 -36.80074,-11.8506 -1.95578,-1.60179 -3.70931,-3.61405 -4.87862,-5.0731 -4.62216,-5.79881 -7.72404,-13.74404 -8.87542,-22.73374 l -0.24127,-1.88392 -0.48121,-0.18962 c -1.31269,-0.51728 -1.83266,-0.83098 -2.43748,-1.4705 -0.77484,-0.81927 -1.14126,-1.49238 -1.35094,-2.48155 -0.19006,-0.89673 -0.20855,-10.41204 -0.0221,-11.39503 0.19684,-1.03797 0.66644,-1.9211 1.42471,-2.67938 0.86156,-0.86155 1.75388,-1.28569 3.09031,-1.46888 l 1.05002,-0.14394 0.28936,-0.88686 c 1.8815,-5.7663 5.49025,-11.34249 9.90207,-15.30056 7.5446,-6.76862 17.38408,-10.51362 29.69869,-11.30359 3.26117,-0.2092 110.89566,-0.0968 112.13201,0.11708 0.52233,0.0904 1.85758,0.288 2.96721,0.43919 14.76969,2.01238 26.38886,9.52706 32.10212,20.76199 1.02463,2.01491 1.28023,2.60836 2.04082,4.73822 l 0.5087,1.42454 1.07089,0.15241 c 1.88521,0.26831 3.27624,1.24879 4.07268,2.87066 l 0.38093,0.77572 0,6.17302 0,6.17303 -0.38159,0.7245 c -0.20987,0.39849 -0.62823,0.99211 -0.92971,1.31918 -0.53721,0.58279 -1.96391,1.41592 -2.42471,1.41592 -0.38015,0 -0.53214,0.31202 -0.66825,1.37174 -1.1173,8.69937 -3.39279,15.29864 -7.26918,21.0818 -7.5669,11.289 -20.45468,17.53131 -39.33882,19.05411 -11.58805,0.48901 -14.1904,0.69501 -19.21784,-0.59432 -4.78411,-1.24439 -9.69683,-4.26866 -13.15003,-8.09517 -3.19392,-3.5392 -5.15056,-6.52594 -9.01194,-13.7564 -2.66297,-4.98645 -3.82349,-6.86708 -5.09832,-8.26195 -1.91271,-2.09282 -3.67078,-2.1122 -5.62886,-0.0621 -1.35984,1.42376 -2.25049,2.84733 -5.08056,8.12049 -4.26149,7.94027 -6.31405,11.01735 -9.62527,14.42964 -2.60899,2.68864 -5.07745,4.50328 -8.07753,5.93806 -2.70199,1.29221 -6.19451,2.23179 -9.48661,2.55214 -1.65981,0.16152 -7.25382,0.16027 -10.2535,-0.002 z"
       id="path3058" />
    <path
       style="fill:#ffffff"
       d="m 267.1904,197.94895 c 5.75991,-0.53078 9.23514,-1.08951 13.07797,-2.10262 9.8555,-2.59826 16.96895,-7.46836 21.50831,-14.72527 1.04732,-1.6743 2.5908,-4.95253 3.29733,-7.00323 2.78845,-8.09358 3.5449,-19.47564 1.7702,-26.63601 -1.50736,-6.08176 -4.66307,-11.14648 -9.34564,-14.99916 -4.76542,-3.92083 -11.00295,-6.6523 -18.11206,-7.93142 -3.84062,-0.69101 -4.39414,-0.72103 -15.26298,-0.82772 -5.67105,-0.0557 -10.40258,-0.0993 -10.5145,-0.097 -0.11194,0.002 -11.8339,0.0262 -26.04882,0.0531 -63.50958,0.12013 -64.79882,0.12712 -66.47874,0.36012 -6.26465,0.86891 -10.33631,2.03101 -14.86656,4.24306 -7.56748,3.69508 -12.82142,9.54061 -15.24853,16.96553 -1.34958,4.12858 -1.82593,8.64986 -1.50674,14.30105 0.59228,10.48543 3.21887,18.55687 7.94697,24.42076 1.72545,2.2161 2.7394,3.2871 4.7954,4.81631 7.66382,6.17122 18.62691,9.15268 34.88863,9.48812 6.42749,0.13258 9.39862,-0.34553 12.95657,-2.08497 2.15059,-1.0514 3.73698,-2.19501 5.56453,-4.01137 2.88879,-2.87113 4.72605,-5.64786 8.88702,-13.43142 0.91747,-1.71623 2.04927,-3.76148 2.51511,-4.54497 2.91166,-4.89719 5.67376,-7.45821 9.01432,-8.35806 1.37631,-0.37073 3.98189,-0.33869 5.28531,0.065 4.19598,1.29954 6.65528,4.0457 11.13253,12.43101 4.22824,7.919 5.92529,10.54141 8.6793,13.41206 3.13583,3.26863 6.54587,5.19596 10.71997,6.05887 9.01488,1.30661 9.68184,0.67254 15.3451,0.13822 z"
       id="path3056" />
    <path
       style="fill:#000000"
       d="m 176.68362,193.38656 c -6.37694,-0.15588 -12.53867,-0.85995 -17.22387,-1.96812 -13.49128,-3.19102 -20.91219,-10.09817 -23.81744,-22.1686 -0.93022,-3.86478 -1.33175,-7.6496 -1.34581,-12.68522 -0.0159,-5.67328 0.61932,-9.01432 2.4484,-12.87878 1.82877,-3.86384 4.92487,-7.28438 8.73972,-9.65557 3.7716,-2.34431 8.61951,-4.01255 14.1723,-4.87688 3.4206,-0.53245 3.32227,-0.5313 46.0942,-0.5342 28.37406,-0.8248 35.60975,-0.003 56.98088,-0.002 7.44226,4.1e-4 10.1679,0.0467 11.84168,0.20062 14.48814,1.33311 24.06584,7.79127 27.17631,18.32477 0.85845,2.90705 1.13103,5.16993 1.12325,9.32475 -6.05819,32.35248 -28.69247,36.42419 -41.74906,36.8738 -2.23055,0.0756 -4.63553,0.0998 -5.34442,0.0537 -4.58473,-0.29796 -7.54277,-1.54844 -10.56465,-4.46614 -2.54465,-2.45693 -4.86144,-5.99891 -8.81342,-13.47423 -2.48583,-4.70206 -4.29883,-7.40073 -6.50827,-9.68765 -2.66144,-2.75474 -5.02136,-4.1275 -8.23184,-4.78846 -5.78716,-1.19141 -11.24834,0.88682 -15.39964,5.86032 -1.94139,2.3259 -3.31724,4.51125 -6.04515,9.60197 -4.63793,8.65508 -6.94195,11.83659 -10.2761,14.18971 -1.77336,1.25158 -3.86881,2.11141 -6.10273,2.50418 -1.17649,0.20684 -4.38466,0.31997 -7.15434,0.25227 z"
       id="path3054" />
    <path
       style="fill:#ffffff"
       d="m 299.28753,157.77743 c 0.1035,-4.91253 -0.10776,-6.7634 -1.13596,-9.95195 -1.00551,-3.1182 -2.59465,-5.62292 -5.09619,-8.03233 -4.06881,-3.91897 -9.58789,-6.22744 -17.5355,-7.3346 -1.40007,-0.19504 -3.57244,-0.2377 -15.51334,-0.30467 -21.11433,0.20917 -28.98808,-0.063 -56.93492,-0.006 -36.76437,0.0725 -40.01472,0.0969 -41.51531,0.31222 -13.50832,1.93848 -21.31357,8.00917 -23.26845,18.09751 -0.7877,4.06504 -0.57851,11.14501 0.48613,16.45315 2.07956,10.36822 7.38323,16.45683 17.27295,19.8293 3.06668,1.04577 6.27258,1.72788 11.08008,2.3575 3.75173,0.49134 13.89412,0.79699 15.87001,0.47824 4.0747,-0.65732 7.11112,-3.11157 10.36597,-8.37851 0.4059,-0.65686 1.06662,-1.70144 1.46823,-2.32131 0.40161,-0.61985 0.80212,-1.32289 0.89002,-1.5623 0.18204,-0.49587 1.5827,-3.15191 2.98181,-5.65443 4.77983,-8.5494 9.5547,-12.82838 15.90058,-14.24932 1.80473,-0.4041 5.74096,-0.45038 7.5582,-0.0889 3.60407,0.717 6.67671,2.36608 9.51332,5.10575 6.00817,6.3222 8.23272,11.69373 15.01399,22.773 1.78295,2.07104 3.8485,3.44784 6.19043,4.12624 1.0326,0.29913 1.247,0.30941 6.35979,0.30534 23.87363,-2.54217 33.63979,-7.23819 40.04816,-31.9545 z"
       id="path3052" />
    <path
       style="fill:#ff6600"
       d="m 165.89778,173.60455 c -0.83942,-0.37054 -1.23323,-1.19289 -0.99589,-2.07961 0.11284,-0.42156 1.23644,-1.61329 6.3977,-6.78559 3.44345,-3.45081 6.46632,-6.37172 6.71747,-6.4909 1.45061,-0.68836 3.02235,0.94462 2.27066,2.35912 -0.30131,0.56697 -12.71228,12.88495 -13.14381,13.04532 -0.49138,0.18261 -0.74521,0.17276 -1.24613,-0.0484 z"
       id="path3050" />
    <path
       style="fill:#ff6600"
       d="m 154.8406,169.35788 c -0.38609,-0.14049 -0.94385,-0.76464 -1.09642,-1.22689 -0.33067,-1.00193 -0.44716,-0.87027 10.01534,-11.32006 8.66269,-8.65219 9.79256,-9.73436 10.25042,-9.81768 1.12793,-0.20527 2.131,0.63173 2.131,1.77817 0,0.46928 -0.0996,0.70203 -0.5286,1.2349 -0.96184,1.19479 -19.06782,19.15745 -19.45778,19.30375 -0.4027,0.15107 -0.97312,0.17183 -1.31396,0.0478 z"
       id="path3048" />
    <path
       style="fill:#ff6600"
       d="m 150.27755,158.06811 c -0.62376,-0.38035 -0.86378,-0.80086 -0.86378,-1.51333 0,-0.48058 0.0923,-0.7519 0.39329,-1.15693 0.21633,-0.29101 3.07051,-3.19799 6.34262,-6.45994 4.19298,-4.17994 6.10366,-5.99458 6.47214,-6.14681 1.52599,-0.63039 2.91118,0.9073 2.18877,2.42971 -0.27338,0.57609 -12.50833,12.77905 -12.99749,12.96351 -0.56396,0.21266 -1.05748,0.17531 -1.53555,-0.11621 z"
       id="path3017" />
    <path
       inkscape:connector-curvature="0"
       id="path3036"
       d="m 142.35343,336.7901 c -6.82453,-4.16182 -14.02451,-15.47967 -17.78036,-27.94942 -1.8264,-6.0638 -2.18891,-8.83532 -2.26178,-17.29224 -0.0816,-9.46653 0.0473,-10.34417 2.14752,-14.62081 6.23612,-12.69866 19.33477,-7.2093 28.40472,11.90379 4.43012,9.3356 6.36301,17.84183 6.38432,28.0961 0.0218,10.5154 -1.13532,15.03127 -4.78757,18.68352 -2.20317,2.20317 -3.27681,2.66661 -6.17187,2.66412 -1.98001,-0.002 -4.562,-0.64777 -5.93498,-1.48506 z m 140.75575,-0.52314 c -12.94804,-10.89505 -2.1507,-56.28687 15.41121,-64.78844 6.5636,-3.17739 10.54032,-1.65489 13.98144,5.35284 2.15548,4.38956 2.27661,5.20193 2.19462,14.71708 -0.0991,11.49793 -2.08967,19.73332 -7.24341,29.96729 -3.00932,5.9757 -9.60091,13.68512 -13.3652,15.63171 -3.50879,1.81447 -8.22546,1.4362 -10.97866,-0.88048 z m -114.79572,-6.6499 c 0.35243,-1.66172 0.59464,-7.91585 0.53826,-13.89807 -0.0864,-9.16829 -0.43509,-12.01572 -2.21983,-18.12791 -2.85012,-9.76084 -8.53061,-20.90403 -13.49666,-26.47582 -2.24377,-2.51745 -3.90617,-5.0291 -3.69421,-5.58144 0.21195,-0.55235 3.52018,-1.82645 7.35161,-2.83134 6.90635,-1.81137 6.99549,-1.81405 10.36961,-0.31122 1.87184,0.83372 4.94337,3.06369 6.8256,4.95548 14.83614,14.91148 20.60441,50.4065 9.77959,60.17861 -1.82173,1.64457 -11.81744,5.11303 -14.73515,5.11303 -1.14788,0 -1.25981,-0.47048 -0.71882,-3.02132 z m 92.08603,1.26305 c -9.978,-3.06287 -12.54169,-7.78306 -12.39156,-22.81512 0.11285,-11.30028 2.25097,-19.81183 7.57374,-30.15001 4.10083,-7.96486 7.62315,-12.03236 12.91266,-14.91127 l 4.24173,-2.30864 7.32694,1.84771 c 4.02982,1.01623 7.64927,2.13522 8.04325,2.48662 0.39396,0.3514 -1.30345,2.8708 -3.77202,5.59865 -5.35635,5.91896 -10.96657,16.74213 -13.97638,26.96303 -1.81499,6.16347 -2.14796,8.88271 -2.21982,18.12791 -0.0465,5.98222 0.20382,12.23635 0.55624,13.89807 0.59622,2.81125 0.51219,3.01608 -1.20853,2.94596 -1.01711,-0.0414 -4.20592,-0.79876 -7.08625,-1.68291 z m -57.41396,-7.83452 c -1.66662,-0.3467 -3.26507,-0.8652 -3.55211,-1.15224 -0.28705,-0.28705 -0.58365,-6.05376 -0.65913,-12.81492 -0.1434,-12.84546 -1.51612,-20.2177 -5.31895,-28.56543 -0.86735,-1.90393 -1.94079,-4.41857 -2.38543,-5.58806 -1.32226,-3.47779 -9.54286,-14.65396 -12.30354,-16.72707 -1.40854,-1.05771 -3.82992,-2.17995 -5.38087,-2.49385 -6.02096,-1.21861 -24.86881,-7.78916 -30.61603,-10.67307 l -6.04264,-3.03214 -0.22416,-11.07817 c -0.14287,-7.0609 0.0706,-11.07817 0.58862,-11.07817 0.44702,0 2.88396,1.32492 5.41542,2.94427 2.53145,1.61934 7.16111,4.11842 10.28812,5.55348 6.65041,3.05203 20.59607,7.61595 23.27156,7.61595 1.26485,0 5.6948,-3.53759 13.90936,-11.10748 6.62938,-6.10912 12.94043,-11.72877 14.02455,-12.48812 1.65739,-1.16088 3.97719,-1.38064 14.57419,-1.38064 14.7812,0 11.76606,-1.49438 28.81056,14.27919 7.39668,6.84514 12.18458,10.69705 13.29637,10.69705 5.30879,0 22.95053,-6.67916 31.98712,-12.11031 3.66357,-2.20187 6.96572,-4.00339 7.33812,-4.00339 0.3724,0 0.67709,4.87925 0.67709,10.84279 l 0,10.84278 -3.42416,1.9813 c -7.24653,4.19301 -19.21939,8.74508 -21.69765,8.24942 -6.43411,-1.28681 -16.4675,4.14544 -22.75954,12.32243 -4.58641,5.96037 -10.28731,17.80466 -12.63887,26.25872 -1.4527,5.22258 -1.81893,8.79522 -1.93024,18.83006 -0.12489,11.25821 -0.27724,12.46528 -1.67513,13.27198 -1.82621,1.05389 -29.05472,1.54345 -33.57263,0.60364 z m 21.1707,-33.79465 c 1.54403,-0.8205 3.65518,-2.72393 4.69143,-4.22985 1.57319,-2.28622 1.8305,-3.50395 1.55931,-7.37968 -0.27731,-3.96316 -0.72524,-5.05481 -3.06434,-7.46815 -1.50675,-1.55458 -4.11187,-3.19603 -5.78916,-3.64767 -4.23865,-1.14135 -8.51983,0.17223 -11.88836,3.64767 -2.33911,2.41334 -2.78704,3.50499 -3.06435,7.46815 -0.27118,3.87573 -0.0138,5.09346 1.55932,7.37968 2.32,3.37151 6.56868,5.72167 10.34379,5.72167 1.56477,0 4.10833,-0.67132 5.65236,-1.49182 z M 207.62712,255.286 c 2.65876,-0.50983 6.14893,-1.21084 7.75593,-1.55779 1.9387,-0.41855 5.46296,-0.13413 10.47391,0.8453 4.15365,0.81186 8.54133,1.48706 9.75039,1.50045 l 2.19832,0.0243 -1.97332,-5.43838 c -1.08532,-2.9911 -3.94314,-10.33291 -6.35069,-16.31512 l -4.37738,-10.87675 -6.64628,0 -6.64628,0 -5.16277,13.29381 c -2.83951,7.31159 -5.69049,14.49702 -6.33549,15.96761 -1.30889,2.98423 -0.88273,4.43115 1.13741,3.86179 0.73817,-0.20806 3.51749,-0.79542 6.17625,-1.30525 z"
       style="fill:#0e0e0e"
       sodipodi:nodetypes="ssssssscssssssssssssssssssssssscscsssscssssssssscssssssssssssscssssssssssssssssssssscsscccssss" />
    <text
       xml:space="preserve"
       style="font-size:40px;font-style:normal;font-variant:normal;font-weight:normal;font-stretch:normal;line-height:125%;letter-spacing:0px;word-spacing:0px;fill:#ff0000;fill-opacity:1;stroke:none;font-family:Dancing Script OT;-inkscape-font-specification:Dancing Script OT"
       x="30.895809"
       y="393.34622"
       id="text3042"
       sodipodi:linespacing="125%"><tspan
         sodipodi:role="line"
         id="tspan3044"
         x="30.895809"
         y="393.34622"
         style="font-size:64px;font-style:normal;font-variant:normal;font-weight:bold;font-stretch:normal;letter-spacing:-7.94000292px;fill:#ff0000;font-family:Adobe Heiti Std R;-inkscape-font-specification:Adobe Heiti Std R Bold">Noise  Exposure</tspan></text>
  </g>
</svg>
